# MagicaVoxel @ Ephtracy

# group
o 

# material
mtllib Shield.mtl
usemtl palette

# normals
vn -1 0 0
vn 1 0 0
vn 0 0 1
vn 0 0 -1
vn 0 -1 0
vn 0 1 0

# texcoords
vt 0.552734 0.5
vt 0.810547 0.5
vt 0.919922 0.5

# verts
v -0.7 1.8 0.4
v -0.7 1.8 0.3
v -0.7 2.7 0.4
v -0.7 2.7 0.3
v -0.6 1.7 0.4
v -0.6 1.7 0.3
v -0.6 1.8 0.4
v -0.6 1.8 0.3
v -0.6 1.9 0.3
v -0.6 1.9 0.2
v -0.6 2.6 0.3
v -0.6 2.6 0.2
v -0.6 2.7 0.4
v -0.6 2.7 0.3
v -0.6 2.8 0.4
v -0.6 2.8 0.3
v -0.5 1.6 0.4
v -0.5 1.6 0.3
v -0.5 1.7 0.4
v -0.5 1.7 0.3
v -0.5 1.8 0.3
v -0.5 1.8 0.2
v -0.5 1.9 0.3
v -0.5 1.9 0.2
v -0.5 2.6 0.3
v -0.5 2.6 0.2
v -0.5 2.7 0.3
v -0.5 2.7 0.2
v -0.4 1.5 0.4
v -0.4 1.5 0.3
v -0.4 1.6 0.4
v -0.4 1.6 0.3
v -0.4 1.7 0.3
v -0.4 1.7 0.2
v -0.4 1.8 0.3
v -0.4 1.8 0.2
v -0.3 1.4 0.4
v -0.3 1.4 0.3
v -0.3 1.5 0.4
v -0.3 1.5 0.3
v -0.3 1.6 0.3
v -0.3 1.6 0.2
v -0.3 1.7 0.3
v -0.3 1.7 0.2
v -0.3 2.8 0.4
v -0.3 2.8 0.3
v -0.3 2.9 0.4
v -0.3 2.9 0.3
v -0.2 1.3 0.4
v -0.2 1.3 0.3
v -0.2 1.4 0.4
v -0.2 1.4 0.3
v -0.2 1.5 0.3
v -0.2 1.5 0.2
v -0.2 1.6 0.3
v -0.2 1.6 0.2
v -0.1 1.2 0.4
v -0.1 1.2 0.3
v -0.1 1.3 0.4
v -0.1 1.3 0.3
v -0.1 1.4 0.3
v -0.1 1.4 0.2
v -0.1 1.5 0.3
v -0.1 1.5 0.2
v 0 1.2 0.4
v 0 1.2 0.3
v 0 1.3 0.4
v 0 1.3 0.3
v 0 1.4 0.3
v 0 1.4 0.2
v 0 1.5 0.3
v 0 1.5 0.2
v 0.1 1.3 0.4
v 0.1 1.3 0.3
v 0.1 1.4 0.4
v 0.1 1.4 0.3
v 0.1 1.5 0.3
v 0.1 1.5 0.2
v 0.1 1.6 0.3
v 0.1 1.6 0.2
v 0.2 1.4 0.4
v 0.2 1.4 0.3
v 0.2 1.5 0.4
v 0.2 1.5 0.3
v 0.2 1.6 0.3
v 0.2 1.6 0.2
v 0.2 1.7 0.3
v 0.2 1.7 0.2
v 0.2 2.8 0.4
v 0.2 2.8 0.3
v 0.2 2.9 0.4
v 0.2 2.9 0.3
v 0.3 1.5 0.4
v 0.3 1.5 0.3
v 0.3 1.6 0.4
v 0.3 1.6 0.3
v 0.3 1.7 0.3
v 0.3 1.7 0.2
v 0.3 1.8 0.3
v 0.3 1.8 0.2
v 0.4 1.6 0.4
v 0.4 1.6 0.3
v 0.4 1.7 0.4
v 0.4 1.7 0.3
v 0.4 1.8 0.3
v 0.4 1.8 0.2
v 0.4 1.9 0.3
v 0.4 1.9 0.2
v 0.4 2.6 0.3
v 0.4 2.6 0.2
v 0.4 2.7 0.3
v 0.4 2.7 0.2
v 0.5 1.7 0.4
v 0.5 1.7 0.3
v 0.5 1.8 0.4
v 0.5 1.8 0.3
v 0.5 1.9 0.3
v 0.5 1.9 0.2
v 0.5 2.6 0.3
v 0.5 2.6 0.2
v 0.5 2.7 0.4
v 0.5 2.7 0.3
v 0.5 2.8 0.4
v 0.5 2.8 0.3
v 0.6 1.8 0.4
v 0.6 1.8 0.3
v 0.6 2.7 0.4
v 0.6 2.7 0.3
v -0.7 1.8 0.4
v -0.7 2.7 0.4
v -0.6 1.7 0.4
v -0.6 1.8 0.4
v -0.6 2.7 0.4
v -0.6 2.8 0.4
v -0.5 1.6 0.4
v -0.5 1.7 0.4
v -0.4 1.5 0.4
v -0.4 1.6 0.4
v -0.3 1.4 0.4
v -0.3 1.5 0.4
v -0.3 2.8 0.4
v -0.3 2.9 0.4
v -0.2 1.3 0.4
v -0.2 1.4 0.4
v -0.1 1.2 0.4
v -0.1 1.3 0.4
v 0 1.2 0.4
v 0 1.3 0.4
v 0.1 1.3 0.4
v 0.1 1.4 0.4
v 0.2 1.4 0.4
v 0.2 1.5 0.4
v 0.2 2.8 0.4
v 0.2 2.9 0.4
v 0.3 1.5 0.4
v 0.3 1.6 0.4
v 0.4 1.6 0.4
v 0.4 1.7 0.4
v 0.5 1.7 0.4
v 0.5 1.8 0.4
v 0.5 2.7 0.4
v 0.5 2.8 0.4
v 0.6 1.8 0.4
v 0.6 2.7 0.4
v -0.7 1.8 0.3
v -0.7 2.7 0.3
v -0.6 1.7 0.3
v -0.6 1.8 0.3
v -0.6 1.9 0.3
v -0.6 2.6 0.3
v -0.6 2.7 0.3
v -0.6 2.8 0.3
v -0.5 1.6 0.3
v -0.5 1.7 0.3
v -0.5 1.8 0.3
v -0.5 1.9 0.3
v -0.5 2.6 0.3
v -0.5 2.7 0.3
v -0.4 1.5 0.3
v -0.4 1.6 0.3
v -0.4 1.7 0.3
v -0.4 1.8 0.3
v -0.4 2.7 0.3
v -0.3 1.4 0.3
v -0.3 1.5 0.3
v -0.3 1.6 0.3
v -0.3 1.7 0.3
v -0.3 2.8 0.3
v -0.3 2.9 0.3
v -0.2 1.3 0.3
v -0.2 1.4 0.3
v -0.2 1.5 0.3
v -0.2 1.6 0.3
v -0.1 1.2 0.3
v -0.1 1.3 0.3
v -0.1 1.4 0.3
v -0.1 1.5 0.3
v 0 1.2 0.3
v 0 1.3 0.3
v 0 1.4 0.3
v 0 1.5 0.3
v 0.1 1.3 0.3
v 0.1 1.4 0.3
v 0.1 1.5 0.3
v 0.1 1.6 0.3
v 0.2 1.4 0.3
v 0.2 1.5 0.3
v 0.2 1.6 0.3
v 0.2 1.7 0.3
v 0.2 2.8 0.3
v 0.2 2.9 0.3
v 0.3 1.5 0.3
v 0.3 1.6 0.3
v 0.3 1.7 0.3
v 0.3 1.8 0.3
v 0.3 2.7 0.3
v 0.4 1.6 0.3
v 0.4 1.7 0.3
v 0.4 1.8 0.3
v 0.4 1.9 0.3
v 0.4 2.6 0.3
v 0.4 2.7 0.3
v 0.5 1.7 0.3
v 0.5 1.8 0.3
v 0.5 1.9 0.3
v 0.5 2.6 0.3
v 0.5 2.7 0.3
v 0.5 2.8 0.3
v 0.6 1.8 0.3
v 0.6 2.7 0.3
v -0.6 1.9 0.2
v -0.6 2.6 0.2
v -0.5 1.8 0.2
v -0.5 1.9 0.2
v -0.5 2.6 0.2
v -0.5 2.7 0.2
v -0.4 1.7 0.2
v -0.4 1.8 0.2
v -0.4 2.1 0.2
v -0.4 2.2 0.2
v -0.4 2.5 0.2
v -0.4 2.6 0.2
v -0.4 2.7 0.2
v -0.3 1.6 0.2
v -0.3 1.7 0.2
v -0.3 2.4 0.2
v -0.3 2.5 0.2
v -0.3 2.6 0.2
v -0.2 1.5 0.2
v -0.2 1.6 0.2
v -0.2 2.4 0.2
v -0.2 2.5 0.2
v -0.1 1.4 0.2
v -0.1 1.5 0.2
v -0.1 2.1 0.2
v -0.1 2.2 0.2
v -0.1 2.4 0.2
v 0 1.4 0.2
v 0 1.5 0.2
v 0 2.1 0.2
v 0 2.2 0.2
v 0 2.4 0.2
v 0.1 1.5 0.2
v 0.1 1.6 0.2
v 0.1 2.4 0.2
v 0.1 2.5 0.2
v 0.2 1.6 0.2
v 0.2 1.7 0.2
v 0.2 2.4 0.2
v 0.2 2.5 0.2
v 0.2 2.6 0.2
v 0.3 1.7 0.2
v 0.3 1.8 0.2
v 0.3 2.1 0.2
v 0.3 2.2 0.2
v 0.3 2.5 0.2
v 0.3 2.6 0.2
v 0.3 2.7 0.2
v 0.4 1.8 0.2
v 0.4 1.9 0.2
v 0.4 2.6 0.2
v 0.4 2.7 0.2
v 0.5 1.9 0.2
v 0.5 2.6 0.2
v -0.1 1.2 0.4
v 0 1.2 0.4
v -0.1 1.2 0.3
v 0 1.2 0.3
v -0.2 1.3 0.4
v -0.1 1.3 0.4
v 0 1.3 0.4
v 0.1 1.3 0.4
v -0.2 1.3 0.3
v -0.1 1.3 0.3
v 0 1.3 0.3
v 0.1 1.3 0.3
v -0.3 1.4 0.4
v -0.2 1.4 0.4
v 0.1 1.4 0.4
v 0.2 1.4 0.4
v -0.3 1.4 0.3
v -0.2 1.4 0.3
v -0.1 1.4 0.3
v 0 1.4 0.3
v 0.1 1.4 0.3
v 0.2 1.4 0.3
v -0.1 1.4 0.2
v 0 1.4 0.2
v -0.4 1.5 0.4
v -0.3 1.5 0.4
v 0.2 1.5 0.4
v 0.3 1.5 0.4
v -0.4 1.5 0.3
v -0.3 1.5 0.3
v -0.2 1.5 0.3
v -0.1 1.5 0.3
v 0 1.5 0.3
v 0.1 1.5 0.3
v 0.2 1.5 0.3
v 0.3 1.5 0.3
v -0.2 1.5 0.2
v -0.1 1.5 0.2
v 0 1.5 0.2
v 0.1 1.5 0.2
v -0.5 1.6 0.4
v -0.4 1.6 0.4
v 0.3 1.6 0.4
v 0.4 1.6 0.4
v -0.5 1.6 0.3
v -0.4 1.6 0.3
v -0.3 1.6 0.3
v -0.2 1.6 0.3
v 0.1 1.6 0.3
v 0.2 1.6 0.3
v 0.3 1.6 0.3
v 0.4 1.6 0.3
v -0.3 1.6 0.2
v -0.2 1.6 0.2
v 0.1 1.6 0.2
v 0.2 1.6 0.2
v -0.6 1.7 0.4
v -0.5 1.7 0.4
v 0.4 1.7 0.4
v 0.5 1.7 0.4
v -0.6 1.7 0.3
v -0.5 1.7 0.3
v -0.4 1.7 0.3
v -0.3 1.7 0.3
v 0.2 1.7 0.3
v 0.3 1.7 0.3
v 0.4 1.7 0.3
v 0.5 1.7 0.3
v -0.4 1.7 0.2
v -0.3 1.7 0.2
v 0.2 1.7 0.2
v 0.3 1.7 0.2
v -0.7 1.8 0.4
v -0.6 1.8 0.4
v 0.5 1.8 0.4
v 0.6 1.8 0.4
v -0.7 1.8 0.3
v -0.6 1.8 0.3
v -0.5 1.8 0.3
v -0.4 1.8 0.3
v 0.3 1.8 0.3
v 0.4 1.8 0.3
v 0.5 1.8 0.3
v 0.6 1.8 0.3
v -0.5 1.8 0.2
v -0.4 1.8 0.2
v 0.3 1.8 0.2
v 0.4 1.8 0.2
v -0.6 1.9 0.3
v -0.5 1.9 0.3
v 0.4 1.9 0.3
v 0.5 1.9 0.3
v -0.6 1.9 0.2
v -0.5 1.9 0.2
v 0.4 1.9 0.2
v 0.5 1.9 0.2
v -0.6 2.6 0.3
v -0.5 2.6 0.3
v 0.4 2.6 0.3
v 0.5 2.6 0.3
v -0.6 2.6 0.2
v -0.5 2.6 0.2
v 0.4 2.6 0.2
v 0.5 2.6 0.2
v -0.7 2.7 0.4
v -0.6 2.7 0.4
v 0.5 2.7 0.4
v 0.6 2.7 0.4
v -0.7 2.7 0.3
v -0.6 2.7 0.3
v -0.5 2.7 0.3
v -0.4 2.7 0.3
v 0.3 2.7 0.3
v 0.4 2.7 0.3
v 0.5 2.7 0.3
v 0.6 2.7 0.3
v -0.5 2.7 0.2
v -0.4 2.7 0.2
v 0.3 2.7 0.2
v 0.4 2.7 0.2
v -0.6 2.8 0.4
v -0.3 2.8 0.4
v 0.2 2.8 0.4
v 0.5 2.8 0.4
v -0.6 2.8 0.3
v -0.3 2.8 0.3
v 0.2 2.8 0.3
v 0.5 2.8 0.3
v -0.3 2.9 0.4
v 0.2 2.9 0.4
v -0.3 2.9 0.3
v 0.2 2.9 0.3

# faces
f 3/1/1 2/1/1 1/1/1
f 4/1/1 2/1/1 3/1/1
f 7/1/1 6/1/1 5/1/1
f 8/1/1 6/1/1 7/1/1
f 11/2/1 10/2/1 9/2/1
f 12/2/1 10/2/1 11/2/1
f 15/1/1 14/1/1 13/1/1
f 16/1/1 14/1/1 15/1/1
f 19/1/1 18/1/1 17/1/1
f 20/1/1 18/1/1 19/1/1
f 23/2/1 22/2/1 21/2/1
f 24/2/1 22/2/1 23/2/1
f 27/3/1 26/3/1 25/3/1
f 28/3/1 26/3/1 27/3/1
f 31/1/1 30/1/1 29/1/1
f 32/1/1 30/1/1 31/1/1
f 35/2/1 34/2/1 33/2/1
f 36/2/1 34/2/1 35/2/1
f 39/1/1 38/1/1 37/1/1
f 40/1/1 38/1/1 39/1/1
f 43/2/1 42/2/1 41/2/1
f 44/2/1 42/2/1 43/2/1
f 47/1/1 46/1/1 45/1/1
f 48/1/1 46/1/1 47/1/1
f 51/1/1 50/1/1 49/1/1
f 52/1/1 50/1/1 51/1/1
f 55/2/1 54/2/1 53/2/1
f 56/2/1 54/2/1 55/2/1
f 59/1/1 58/1/1 57/1/1
f 60/1/1 58/1/1 59/1/1
f 63/3/1 62/3/1 61/3/1
f 64/3/1 62/3/1 63/3/1
f 65/1/2 66/1/2 67/1/2
f 67/1/2 66/1/2 68/1/2
f 69/3/2 70/3/2 71/3/2
f 71/3/2 70/3/2 72/3/2
f 73/1/2 74/1/2 75/1/2
f 75/1/2 74/1/2 76/1/2
f 77/2/2 78/2/2 79/2/2
f 79/2/2 78/2/2 80/2/2
f 81/1/2 82/1/2 83/1/2
f 83/1/2 82/1/2 84/1/2
f 85/2/2 86/2/2 87/2/2
f 87/2/2 86/2/2 88/2/2
f 89/1/2 90/1/2 91/1/2
f 91/1/2 90/1/2 92/1/2
f 93/1/2 94/1/2 95/1/2
f 95/1/2 94/1/2 96/1/2
f 97/2/2 98/2/2 99/2/2
f 99/2/2 98/2/2 100/2/2
f 101/1/2 102/1/2 103/1/2
f 103/1/2 102/1/2 104/1/2
f 105/2/2 106/2/2 107/2/2
f 107/2/2 106/2/2 108/2/2
f 109/3/2 110/3/2 111/3/2
f 111/3/2 110/3/2 112/3/2
f 113/1/2 114/1/2 115/1/2
f 115/1/2 114/1/2 116/1/2
f 117/2/2 118/2/2 119/2/2
f 119/2/2 118/2/2 120/2/2
f 121/1/2 122/1/2 123/1/2
f 123/1/2 122/1/2 124/1/2
f 125/1/2 126/1/2 127/1/2
f 127/1/2 126/1/2 128/1/2
f 132/1/3 130/1/3 129/1/3
f 133/1/3 130/1/3 132/1/3
f 136/1/3 132/1/3 131/1/3
f 136/1/3 134/1/3 133/1/3
f 136/1/3 133/1/3 132/1/3
f 138/1/3 136/1/3 135/1/3
f 140/1/3 138/1/3 137/1/3
f 141/1/3 134/1/3 136/1/3
f 141/1/3 136/1/3 138/1/3
f 141/1/3 138/1/3 140/1/3
f 144/1/3 140/1/3 139/1/3
f 144/1/3 142/1/3 141/1/3
f 144/1/3 141/1/3 140/1/3
f 146/1/3 144/1/3 143/1/3
f 147/1/3 146/1/3 145/1/3
f 148/1/3 144/1/3 146/1/3
f 148/1/3 146/1/3 147/1/3
f 149/1/3 144/1/3 148/1/3
f 150/1/3 142/1/3 144/1/3
f 150/1/3 144/1/3 149/1/3
f 151/1/3 142/1/3 150/1/3
f 152/1/3 142/1/3 151/1/3
f 153/1/3 142/1/3 152/1/3
f 154/1/3 142/1/3 153/1/3
f 155/1/3 153/1/3 152/1/3
f 156/1/3 153/1/3 155/1/3
f 157/1/3 153/1/3 156/1/3
f 158/1/3 153/1/3 157/1/3
f 159/1/3 153/1/3 158/1/3
f 160/1/3 153/1/3 159/1/3
f 161/1/3 153/1/3 160/1/3
f 162/1/3 153/1/3 161/1/3
f 163/1/3 161/1/3 160/1/3
f 164/1/3 161/1/3 163/1/3
f 165/1/4 166/1/4 168/1/4
f 168/1/4 166/1/4 169/1/4
f 169/1/4 166/1/4 170/1/4
f 170/1/4 166/1/4 171/1/4
f 167/1/4 168/1/4 174/1/4
f 168/1/4 169/1/4 174/1/4
f 174/1/4 169/1/4 175/1/4
f 175/1/4 169/1/4 176/1/4
f 170/1/4 171/1/4 177/1/4
f 171/1/4 172/1/4 177/1/4
f 177/1/4 172/1/4 178/1/4
f 174/1/4 175/1/4 180/1/4
f 173/1/4 174/1/4 180/1/4
f 180/1/4 175/1/4 181/1/4
f 181/1/4 175/1/4 182/1/4
f 178/1/4 172/1/4 183/1/4
f 179/1/4 180/1/4 185/1/4
f 180/1/4 181/1/4 185/1/4
f 185/1/4 181/1/4 186/1/4
f 186/1/4 181/1/4 187/1/4
f 183/1/4 172/1/4 188/1/4
f 184/1/4 185/1/4 191/1/4
f 185/1/4 186/1/4 191/1/4
f 191/1/4 186/1/4 192/1/4
f 192/1/4 186/1/4 193/1/4
f 190/1/4 191/1/4 195/1/4
f 191/1/4 192/1/4 195/1/4
f 195/1/4 192/1/4 196/1/4
f 196/1/4 192/1/4 197/1/4
f 194/1/4 195/1/4 198/1/4
f 195/1/4 196/1/4 198/1/4
f 198/1/4 196/1/4 199/1/4
f 199/1/4 196/1/4 200/1/4
f 200/1/4 201/1/4 202/1/4
f 199/1/4 200/1/4 202/1/4
f 202/1/4 201/1/4 203/1/4
f 203/1/4 201/1/4 204/1/4
f 203/1/4 204/1/4 206/1/4
f 204/1/4 205/1/4 206/1/4
f 206/1/4 205/1/4 207/1/4
f 207/1/4 205/1/4 208/1/4
f 188/1/4 189/1/4 210/1/4
f 183/1/4 188/1/4 210/1/4
f 210/1/4 189/1/4 211/1/4
f 208/1/4 209/1/4 212/1/4
f 207/1/4 208/1/4 212/1/4
f 212/1/4 209/1/4 213/1/4
f 213/1/4 209/1/4 214/1/4
f 183/1/4 210/1/4 216/1/4
f 214/1/4 215/1/4 217/1/4
f 213/1/4 214/1/4 217/1/4
f 217/1/4 215/1/4 218/1/4
f 218/1/4 215/1/4 219/1/4
f 216/1/4 210/1/4 222/1/4
f 219/1/4 220/1/4 223/1/4
f 218/1/4 219/1/4 223/1/4
f 223/1/4 220/1/4 224/1/4
f 224/1/4 220/1/4 225/1/4
f 221/1/4 222/1/4 226/1/4
f 222/1/4 210/1/4 227/1/4
f 226/1/4 222/1/4 227/1/4
f 227/1/4 210/1/4 228/1/4
f 224/1/4 225/1/4 229/1/4
f 225/1/4 226/1/4 229/1/4
f 226/1/4 227/1/4 229/1/4
f 229/1/4 227/1/4 230/1/4
f 231/2/4 232/2/4 234/2/4
f 234/2/4 232/2/4 235/2/4
f 233/2/4 234/2/4 238/2/4
f 234/2/4 235/2/4 238/2/4
f 238/2/4 235/2/4 239/2/4
f 239/2/4 235/2/4 240/2/4
f 240/2/4 235/2/4 241/2/4
f 235/3/4 236/3/4 242/3/4
f 241/2/4 235/2/4 242/2/4
f 242/3/4 236/3/4 243/3/4
f 237/2/4 238/2/4 245/2/4
f 238/2/4 239/2/4 245/2/4
f 240/2/4 241/2/4 246/2/4
f 241/3/4 242/3/4 247/3/4
f 246/2/4 241/2/4 247/2/4
f 242/2/4 243/2/4 248/2/4
f 247/3/4 242/3/4 248/3/4
f 244/2/4 245/2/4 250/2/4
f 246/3/4 247/3/4 251/3/4
f 240/2/4 246/2/4 251/2/4
f 247/2/4 248/2/4 252/2/4
f 251/3/4 247/3/4 252/3/4
f 249/2/4 250/2/4 254/2/4
f 239/3/4 240/3/4 255/3/4
f 250/2/4 245/2/4 255/2/4
f 254/2/4 250/2/4 255/2/4
f 245/2/4 239/2/4 255/2/4
f 251/2/4 252/2/4 256/2/4
f 255/3/4 240/3/4 256/3/4
f 240/2/4 251/2/4 256/2/4
f 256/2/4 252/2/4 257/2/4
f 253/3/4 254/3/4 258/3/4
f 254/3/4 255/3/4 258/3/4
f 256/3/4 257/3/4 258/3/4
f 255/3/4 256/3/4 258/3/4
f 258/3/4 257/3/4 259/3/4
f 259/3/4 257/3/4 260/3/4
f 260/3/4 257/3/4 261/3/4
f 257/2/4 252/2/4 262/2/4
f 261/3/4 257/3/4 262/3/4
f 259/2/4 260/2/4 263/2/4
f 263/2/4 260/2/4 264/2/4
f 262/2/4 252/2/4 265/2/4
f 261/2/4 262/2/4 265/2/4
f 252/2/4 248/2/4 266/2/4
f 265/2/4 252/2/4 266/2/4
f 264/2/4 260/2/4 267/2/4
f 267/2/4 260/2/4 268/2/4
f 261/2/4 265/2/4 269/2/4
f 265/3/4 266/3/4 269/3/4
f 266/2/4 248/2/4 270/2/4
f 269/3/4 266/3/4 270/3/4
f 248/2/4 243/2/4 271/2/4
f 270/2/4 248/2/4 271/2/4
f 268/2/4 260/2/4 272/2/4
f 272/2/4 260/2/4 273/2/4
f 260/3/4 261/3/4 274/3/4
f 273/2/4 260/2/4 274/2/4
f 269/2/4 270/2/4 275/2/4
f 274/3/4 261/3/4 275/3/4
f 261/2/4 269/2/4 275/2/4
f 270/3/4 271/3/4 276/3/4
f 275/2/4 270/2/4 276/2/4
f 271/2/4 243/2/4 277/2/4
f 276/3/4 271/3/4 277/3/4
f 277/2/4 243/2/4 278/2/4
f 273/2/4 274/2/4 279/2/4
f 275/2/4 276/2/4 279/2/4
f 276/2/4 277/2/4 279/2/4
f 274/2/4 275/2/4 279/2/4
f 279/2/4 277/2/4 280/2/4
f 277/3/4 278/3/4 281/3/4
f 280/2/4 277/2/4 281/2/4
f 281/3/4 278/3/4 282/3/4
f 280/2/4 281/2/4 283/2/4
f 283/2/4 281/2/4 284/2/4
f 287/1/5 286/1/5 285/1/5
f 288/1/5 286/1/5 287/1/5
f 293/1/5 290/1/5 289/1/5
f 294/1/5 290/1/5 293/1/5
f 295/1/5 292/1/5 291/1/5
f 296/1/5 292/1/5 295/1/5
f 301/1/5 298/1/5 297/1/5
f 302/1/5 298/1/5 301/1/5
f 305/1/5 300/1/5 299/1/5
f 306/1/5 300/1/5 305/1/5
f 307/3/5 304/3/5 303/3/5
f 308/3/5 304/3/5 307/3/5
f 313/1/5 310/1/5 309/1/5
f 314/1/5 310/1/5 313/1/5
f 319/1/5 312/1/5 311/1/5
f 320/1/5 312/1/5 319/1/5
f 321/2/5 316/2/5 315/2/5
f 322/2/5 316/2/5 321/2/5
f 323/2/5 318/2/5 317/2/5
f 324/2/5 318/2/5 323/2/5
f 329/1/5 326/1/5 325/1/5
f 330/1/5 326/1/5 329/1/5
f 335/1/5 328/1/5 327/1/5
f 336/1/5 328/1/5 335/1/5
f 337/2/5 332/2/5 331/2/5
f 338/2/5 332/2/5 337/2/5
f 339/2/5 334/2/5 333/2/5
f 340/2/5 334/2/5 339/2/5
f 345/1/5 342/1/5 341/1/5
f 346/1/5 342/1/5 345/1/5
f 351/1/5 344/1/5 343/1/5
f 352/1/5 344/1/5 351/1/5
f 353/2/5 348/2/5 347/2/5
f 354/2/5 348/2/5 353/2/5
f 355/2/5 350/2/5 349/2/5
f 356/2/5 350/2/5 355/2/5
f 361/1/5 358/1/5 357/1/5
f 362/1/5 358/1/5 361/1/5
f 367/1/5 360/1/5 359/1/5
f 368/1/5 360/1/5 367/1/5
f 369/2/5 364/2/5 363/2/5
f 370/2/5 364/2/5 369/2/5
f 371/2/5 366/2/5 365/2/5
f 372/2/5 366/2/5 371/2/5
f 377/2/5 374/2/5 373/2/5
f 378/2/5 374/2/5 377/2/5
f 379/2/5 376/2/5 375/2/5
f 380/2/5 376/2/5 379/2/5
f 381/2/6 382/2/6 385/2/6
f 385/2/6 382/2/6 386/2/6
f 383/2/6 384/2/6 387/2/6
f 387/2/6 384/2/6 388/2/6
f 389/1/6 390/1/6 393/1/6
f 393/1/6 390/1/6 394/1/6
f 391/1/6 392/1/6 399/1/6
f 399/1/6 392/1/6 400/1/6
f 395/3/6 396/3/6 401/3/6
f 396/2/6 397/2/6 402/2/6
f 401/3/6 396/3/6 402/3/6
f 397/3/6 398/3/6 403/3/6
f 402/2/6 397/2/6 403/2/6
f 403/3/6 398/3/6 404/3/6
f 405/1/6 406/1/6 409/1/6
f 409/1/6 406/1/6 410/1/6
f 407/1/6 408/1/6 411/1/6
f 411/1/6 408/1/6 412/1/6
f 413/1/6 414/1/6 415/1/6
f 415/1/6 414/1/6 416/1/6
