# MagicaVoxel @ Ephtracy

# group
o 

# material
mtllib Torture Table.mtl
usemtl palette

# normals
vn -1 0 0
vn 1 0 0
vn 0 0 1
vn 0 0 -1
vn 0 -1 0
vn 0 1 0

# texcoords
vt 0.521484 0.5
vt 0.685547 0.5
vt 0.931641 0.5

# verts
v -1 0 1
v -1 0 0.9
v -1 0 -1.2
v -1 0 -1.3
v -1 0.8 0.9
v -1 0.8 -1.2
v -1 1 1
v -1 1 -1.1
v -1 1 -1.2
v -1 1 -1.3
v -1 1.2 -1.1
v -1 1.2 -1.2
v -0.8 1 0.4
v -0.8 1 0.3
v -0.8 1 -0.1
v -0.8 1 -0.2
v -0.8 1.1 0.3
v -0.8 1.1 -0.1
v -0.8 1.2 0.4
v -0.8 1.2 -0.2
v -0.7 1 0.8
v -0.7 1 0.7
v -0.7 1.2 0.8
v -0.7 1.2 0.7
v -0.6 1 -0.5
v -0.6 1 -0.6
v -0.6 1.2 -0.5
v -0.6 1.2 -0.6
v -0.5 1 -1.1
v -0.5 1 -1.2
v -0.5 1.1 -1.1
v -0.5 1.1 -1.2
v 0 1 -1.1
v 0 1 -1.2
v 0 1.2 -1.1
v 0 1.2 -1.2
v 0.2 1 0.8
v 0.2 1 0.7
v 0.2 1 -0.5
v 0.2 1 -0.6
v 0.2 1.1 0.8
v 0.2 1.1 0.7
v 0.2 1.1 -0.5
v 0.2 1.1 -0.6
v 0.4 1 0.4
v 0.4 1 0.3
v 0.4 1 -0.1
v 0.4 1 -0.2
v 0.4 1.1 0.3
v 0.4 1.1 -0.1
v 0.4 1.2 0.4
v 0.4 1.2 -0.2
v 0.5 1 -1.1
v 0.5 1 -1.2
v 0.5 1.1 -1.1
v 0.5 1.1 -1.2
v 0.6 0 1
v 0.6 0 0.9
v 0.6 0 -1.2
v 0.6 0 -1.3
v 0.6 0.8 1
v 0.6 0.8 0.9
v 0.6 0.8 -1.2
v 0.6 0.8 -1.3
v -0.9 0 1
v -0.9 0 0.9
v -0.9 0 -1.2
v -0.9 0 -1.3
v -0.9 0.8 1
v -0.9 0.8 0.9
v -0.9 0.8 -1.2
v -0.9 0.8 -1.3
v -0.9 1 -1.1
v -0.9 1 -1.2
v -0.9 1.1 -1.1
v -0.9 1.1 -1.2
v -0.7 1 0.4
v -0.7 1 0.3
v -0.7 1 -0.1
v -0.7 1 -0.2
v -0.7 1.1 0.3
v -0.7 1.1 -0.1
v -0.7 1.2 0.4
v -0.7 1.2 -0.2
v -0.6 1 0.8
v -0.6 1 0.7
v -0.6 1.1 0.8
v -0.6 1.1 0.7
v -0.5 1 -0.5
v -0.5 1 -0.6
v -0.5 1.1 -0.5
v -0.5 1.1 -0.6
v -0.4 1 -1.1
v -0.4 1 -1.2
v -0.4 1.2 -1.1
v -0.4 1.2 -1.2
v 0.1 1 -1.1
v 0.1 1 -1.2
v 0.1 1.1 -1.1
v 0.1 1.1 -1.2
v 0.3 1 0.8
v 0.3 1 0.7
v 0.3 1 -0.5
v 0.3 1 -0.6
v 0.3 1.2 0.8
v 0.3 1.2 0.7
v 0.3 1.2 -0.5
v 0.3 1.2 -0.6
v 0.5 1 0.4
v 0.5 1 0.3
v 0.5 1 -0.1
v 0.5 1 -0.2
v 0.5 1.1 0.3
v 0.5 1.1 -0.1
v 0.5 1.2 0.4
v 0.5 1.2 -0.2
v 0.6 1 -1.1
v 0.6 1 -1.2
v 0.6 1.2 -1.1
v 0.6 1.2 -1.2
v 0.7 0 1
v 0.7 0 0.9
v 0.7 0 -1.2
v 0.7 0 -1.3
v 0.7 0.8 0.9
v 0.7 0.8 -1.2
v 0.7 1 1
v 0.7 1 -1.3
v -1 0 1
v -1 1 1
v -0.9 0 1
v -0.9 0.8 1
v 0.6 0 1
v 0.6 0.8 1
v 0.7 0 1
v 0.7 1 1
v -0.7 1 0.8
v -0.7 1.2 0.8
v -0.6 1 0.8
v -0.6 1.1 0.8
v 0.2 1 0.8
v 0.2 1.1 0.8
v 0.3 1 0.8
v 0.3 1.2 0.8
v -0.8 1 0.4
v -0.8 1.2 0.4
v -0.7 1 0.4
v -0.7 1.2 0.4
v 0.4 1 0.4
v 0.4 1.2 0.4
v 0.5 1 0.4
v 0.5 1.2 0.4
v -0.8 1 -0.1
v -0.8 1.1 -0.1
v -0.7 1 -0.1
v -0.7 1.1 -0.1
v 0.4 1 -0.1
v 0.4 1.1 -0.1
v 0.5 1 -0.1
v 0.5 1.1 -0.1
v -0.6 1 -0.5
v -0.6 1.2 -0.5
v -0.5 1 -0.5
v -0.5 1.1 -0.5
v 0.2 1 -0.5
v 0.2 1.1 -0.5
v 0.3 1 -0.5
v 0.3 1.2 -0.5
v -1 1 -1.1
v -1 1.2 -1.1
v -0.9 1 -1.1
v -0.9 1.1 -1.1
v -0.5 1 -1.1
v -0.5 1.1 -1.1
v -0.4 1 -1.1
v -0.4 1.2 -1.1
v 0 1 -1.1
v 0 1.2 -1.1
v 0.1 1 -1.1
v 0.1 1.1 -1.1
v 0.5 1 -1.1
v 0.5 1.1 -1.1
v 0.6 1 -1.1
v 0.6 1.2 -1.1
v -1 0 -1.2
v -1 0.8 -1.2
v -0.9 0 -1.2
v -0.9 0.8 -1.2
v 0.6 0 -1.2
v 0.6 0.8 -1.2
v 0.7 0 -1.2
v 0.7 0.8 -1.2
v -1 0 0.9
v -1 0.8 0.9
v -0.9 0 0.9
v -0.9 0.8 0.9
v 0.6 0 0.9
v 0.6 0.8 0.9
v 0.7 0 0.9
v 0.7 0.8 0.9
v -0.7 1 0.7
v -0.7 1.2 0.7
v -0.6 1 0.7
v -0.6 1.1 0.7
v 0.2 1 0.7
v 0.2 1.1 0.7
v 0.3 1 0.7
v 0.3 1.2 0.7
v -0.8 1 0.3
v -0.8 1.1 0.3
v -0.7 1 0.3
v -0.7 1.1 0.3
v 0.4 1 0.3
v 0.4 1.1 0.3
v 0.5 1 0.3
v 0.5 1.1 0.3
v -0.8 1 -0.2
v -0.8 1.2 -0.2
v -0.7 1 -0.2
v -0.7 1.2 -0.2
v 0.4 1 -0.2
v 0.4 1.2 -0.2
v 0.5 1 -0.2
v 0.5 1.2 -0.2
v -0.6 1 -0.6
v -0.6 1.2 -0.6
v -0.5 1 -0.6
v -0.5 1.1 -0.6
v 0.2 1 -0.6
v 0.2 1.1 -0.6
v 0.3 1 -0.6
v 0.3 1.2 -0.6
v -1 1 -1.2
v -1 1.2 -1.2
v -0.9 1 -1.2
v -0.9 1.1 -1.2
v -0.5 1 -1.2
v -0.5 1.1 -1.2
v -0.4 1 -1.2
v -0.4 1.2 -1.2
v 0 1 -1.2
v 0 1.2 -1.2
v 0.1 1 -1.2
v 0.1 1.1 -1.2
v 0.5 1 -1.2
v 0.5 1.1 -1.2
v 0.6 1 -1.2
v 0.6 1.2 -1.2
v -1 0 -1.3
v -1 1 -1.3
v -0.9 0 -1.3
v -0.9 0.8 -1.3
v 0.6 0 -1.3
v 0.6 0.8 -1.3
v 0.7 0 -1.3
v 0.7 1 -1.3
v -1 0 1
v -0.9 0 1
v 0.6 0 1
v 0.7 0 1
v -1 0 0.9
v -0.9 0 0.9
v 0.6 0 0.9
v 0.7 0 0.9
v -1 0 -1.2
v -0.9 0 -1.2
v 0.6 0 -1.2
v 0.7 0 -1.2
v -1 0 -1.3
v -0.9 0 -1.3
v 0.6 0 -1.3
v 0.7 0 -1.3
v -0.9 0.8 1
v 0.6 0.8 1
v -1 0.8 0.9
v -0.9 0.8 0.9
v 0.6 0.8 0.9
v 0.7 0.8 0.9
v -1 0.8 -1.2
v -0.9 0.8 -1.2
v 0.6 0.8 -1.2
v 0.7 0.8 -1.2
v -0.9 0.8 -1.3
v 0.6 0.8 -1.3
v -0.6 1.1 0.8
v 0.2 1.1 0.8
v -0.6 1.1 0.7
v 0.2 1.1 0.7
v -0.8 1.1 0.3
v -0.7 1.1 0.3
v 0.4 1.1 0.3
v 0.5 1.1 0.3
v -0.8 1.1 -0.1
v -0.7 1.1 -0.1
v 0.4 1.1 -0.1
v 0.5 1.1 -0.1
v -0.5 1.1 -0.5
v 0.2 1.1 -0.5
v -0.5 1.1 -0.6
v 0.2 1.1 -0.6
v -0.9 1.1 -1.1
v -0.5 1.1 -1.1
v 0.1 1.1 -1.1
v 0.5 1.1 -1.1
v -0.9 1.1 -1.2
v -0.5 1.1 -1.2
v 0.1 1.1 -1.2
v 0.5 1.1 -1.2
v -1 1 1
v 0.7 1 1
v -0.9 1 0.8
v -0.7 1 0.8
v -0.6 1 0.8
v -0.3 1 0.8
v 0.2 1 0.8
v 0.3 1 0.8
v -0.9 1 0.7
v -0.7 1 0.7
v -0.6 1 0.7
v -0.3 1 0.7
v 0 1 0.7
v 0.2 1 0.7
v 0.3 1 0.7
v 0.5 1 0.7
v 0 1 0.5
v 0.5 1 0.5
v -0.8 1 0.4
v -0.7 1 0.4
v 0.4 1 0.4
v 0.5 1 0.4
v -0.8 1 0.3
v -0.7 1 0.3
v 0.3 1 0.3
v 0.4 1 0.3
v 0.5 1 0.3
v -0.8 1 0.2
v 0.3 1 0.2
v -0.7 1 0.1
v 0.6 1 0.1
v -0.8 1 -0.1
v -0.7 1 -0.1
v 0.4 1 -0.1
v 0.5 1 -0.1
v 0.6 1 -0.1
v -0.8 1 -0.2
v -0.7 1 -0.2
v 0.4 1 -0.2
v 0.5 1 -0.2
v -0.9 1 -0.4
v 0 1 -0.4
v 0.5 1 -0.4
v 0.6 1 -0.4
v -0.9 1 -0.5
v -0.6 1 -0.5
v -0.5 1 -0.5
v 0 1 -0.5
v 0.2 1 -0.5
v 0.3 1 -0.5
v -0.6 1 -0.6
v -0.5 1 -0.6
v 0.2 1 -0.6
v 0.3 1 -0.6
v -0.7 1 -0.8
v 0 1 -0.8
v -0.7 1 -1
v 0 1 -1
v -1 1 -1.1
v -0.9 1 -1.1
v -0.5 1 -1.1
v -0.4 1 -1.1
v 0 1 -1.1
v 0.1 1 -1.1
v 0.5 1 -1.1
v 0.6 1 -1.1
v -1 1 -1.2
v -0.9 1 -1.2
v -0.5 1 -1.2
v -0.4 1 -1.2
v 0 1 -1.2
v 0.1 1 -1.2
v 0.5 1 -1.2
v 0.6 1 -1.2
v -1 1 -1.3
v 0.7 1 -1.3
v -0.7 1.2 0.8
v 0.3 1.2 0.8
v -0.7 1.2 0.7
v 0.3 1.2 0.7
v -0.8 1.2 0.4
v -0.7 1.2 0.4
v 0.4 1.2 0.4
v 0.5 1.2 0.4
v -0.8 1.2 -0.2
v -0.7 1.2 -0.2
v 0.4 1.2 -0.2
v 0.5 1.2 -0.2
v -0.6 1.2 -0.5
v 0.3 1.2 -0.5
v -0.6 1.2 -0.6
v 0.3 1.2 -0.6
v -1 1.2 -1.1
v -0.4 1.2 -1.1
v 0 1.2 -1.1
v 0.6 1.2 -1.1
v -1 1.2 -1.2
v -0.4 1.2 -1.2
v 0 1.2 -1.2
v 0.6 1.2 -1.2

# faces
f 5/2/1 2/2/1 1/2/1
f 6/2/1 4/2/1 3/2/1
f 7/2/1 5/2/1 1/2/1
f 7/2/1 6/2/1 5/2/1
f 8/2/1 6/2/1 7/2/1
f 9/2/1 4/2/1 6/2/1
f 9/2/1 6/2/1 8/2/1
f 10/2/1 4/2/1 9/2/1
f 11/3/1 9/3/1 8/3/1
f 12/3/1 9/3/1 11/3/1
f 17/3/1 14/3/1 13/3/1
f 18/3/1 16/3/1 15/3/1
f 19/3/1 17/3/1 13/3/1
f 19/3/1 18/3/1 17/3/1
f 20/3/1 16/3/1 18/3/1
f 20/3/1 18/3/1 19/3/1
f 23/3/1 22/3/1 21/3/1
f 24/3/1 22/3/1 23/3/1
f 27/3/1 26/3/1 25/3/1
f 28/3/1 26/3/1 27/3/1
f 31/3/1 30/3/1 29/3/1
f 32/3/1 30/3/1 31/3/1
f 35/3/1 34/3/1 33/3/1
f 36/3/1 34/3/1 35/3/1
f 41/3/1 38/3/1 37/3/1
f 42/3/1 38/3/1 41/3/1
f 43/3/1 40/3/1 39/3/1
f 44/3/1 40/3/1 43/3/1
f 49/3/1 46/3/1 45/3/1
f 50/3/1 48/3/1 47/3/1
f 51/3/1 49/3/1 45/3/1
f 51/3/1 50/3/1 49/3/1
f 52/3/1 48/3/1 50/3/1
f 52/3/1 50/3/1 51/3/1
f 55/3/1 54/3/1 53/3/1
f 56/3/1 54/3/1 55/3/1
f 61/2/1 58/2/1 57/2/1
f 62/2/1 58/2/1 61/2/1
f 63/2/1 60/2/1 59/2/1
f 64/2/1 60/2/1 63/2/1
f 65/2/2 66/2/2 69/2/2
f 69/2/2 66/2/2 70/2/2
f 67/2/2 68/2/2 71/2/2
f 71/2/2 68/2/2 72/2/2
f 73/3/2 74/3/2 75/3/2
f 75/3/2 74/3/2 76/3/2
f 77/3/2 78/3/2 81/3/2
f 79/3/2 80/3/2 82/3/2
f 77/3/2 81/3/2 83/3/2
f 81/3/2 82/3/2 83/3/2
f 82/3/2 80/3/2 84/3/2
f 83/3/2 82/3/2 84/3/2
f 85/3/2 86/3/2 87/3/2
f 87/3/2 86/3/2 88/3/2
f 89/3/2 90/3/2 91/3/2
f 91/3/2 90/3/2 92/3/2
f 93/3/2 94/3/2 95/3/2
f 95/3/2 94/3/2 96/3/2
f 97/3/2 98/3/2 99/3/2
f 99/3/2 98/3/2 100/3/2
f 101/3/2 102/3/2 105/3/2
f 105/3/2 102/3/2 106/3/2
f 103/3/2 104/3/2 107/3/2
f 107/3/2 104/3/2 108/3/2
f 109/3/2 110/3/2 113/3/2
f 111/3/2 112/3/2 114/3/2
f 109/3/2 113/3/2 115/3/2
f 113/3/2 114/3/2 115/3/2
f 114/3/2 112/3/2 116/3/2
f 115/3/2 114/3/2 116/3/2
f 117/3/2 118/3/2 119/3/2
f 119/3/2 118/3/2 120/3/2
f 121/2/2 122/2/2 125/2/2
f 123/2/2 124/2/2 126/2/2
f 121/2/2 125/2/2 127/2/2
f 125/2/2 126/2/2 127/2/2
f 126/2/2 124/2/2 128/2/2
f 127/2/2 126/2/2 128/2/2
f 131/2/3 130/2/3 129/2/3
f 132/2/3 130/2/3 131/2/3
f 134/2/3 130/2/3 132/2/3
f 135/2/3 134/2/3 133/2/3
f 136/2/3 130/2/3 134/2/3
f 136/2/3 134/2/3 135/2/3
f 139/3/3 138/3/3 137/3/3
f 140/3/3 138/3/3 139/3/3
f 142/3/3 138/3/3 140/3/3
f 143/3/3 142/3/3 141/3/3
f 144/3/3 138/3/3 142/3/3
f 144/3/3 142/3/3 143/3/3
f 147/3/3 146/3/3 145/3/3
f 148/3/3 146/3/3 147/3/3
f 151/3/3 150/3/3 149/3/3
f 152/3/3 150/3/3 151/3/3
f 155/3/3 154/3/3 153/3/3
f 156/3/3 154/3/3 155/3/3
f 159/3/3 158/3/3 157/3/3
f 160/3/3 158/3/3 159/3/3
f 163/3/3 162/3/3 161/3/3
f 164/3/3 162/3/3 163/3/3
f 166/3/3 162/3/3 164/3/3
f 167/3/3 166/3/3 165/3/3
f 168/3/3 162/3/3 166/3/3
f 168/3/3 166/3/3 167/3/3
f 171/3/3 170/3/3 169/3/3
f 172/3/3 170/3/3 171/3/3
f 174/3/3 170/3/3 172/3/3
f 175/3/3 174/3/3 173/3/3
f 176/3/3 170/3/3 174/3/3
f 176/3/3 174/3/3 175/3/3
f 179/3/3 178/3/3 177/3/3
f 180/3/3 178/3/3 179/3/3
f 182/3/3 178/3/3 180/3/3
f 183/3/3 182/3/3 181/3/3
f 184/3/3 178/3/3 182/3/3
f 184/3/3 182/3/3 183/3/3
f 187/2/3 186/2/3 185/2/3
f 188/2/3 186/2/3 187/2/3
f 191/2/3 190/2/3 189/2/3
f 192/2/3 190/2/3 191/2/3
f 193/2/4 194/2/4 195/2/4
f 195/2/4 194/2/4 196/2/4
f 197/2/4 198/2/4 199/2/4
f 199/2/4 198/2/4 200/2/4
f 201/3/4 202/3/4 203/3/4
f 203/3/4 202/3/4 204/3/4
f 204/3/4 202/3/4 206/3/4
f 205/3/4 206/3/4 207/3/4
f 206/3/4 202/3/4 208/3/4
f 207/3/4 206/3/4 208/3/4
f 209/3/4 210/3/4 211/3/4
f 211/3/4 210/3/4 212/3/4
f 213/3/4 214/3/4 215/3/4
f 215/3/4 214/3/4 216/3/4
f 217/3/4 218/3/4 219/3/4
f 219/3/4 218/3/4 220/3/4
f 221/3/4 222/3/4 223/3/4
f 223/3/4 222/3/4 224/3/4
f 225/3/4 226/3/4 227/3/4
f 227/3/4 226/3/4 228/3/4
f 228/3/4 226/3/4 230/3/4
f 229/3/4 230/3/4 231/3/4
f 230/3/4 226/3/4 232/3/4
f 231/3/4 230/3/4 232/3/4
f 233/3/4 234/3/4 235/3/4
f 235/3/4 234/3/4 236/3/4
f 236/3/4 234/3/4 238/3/4
f 237/3/4 238/3/4 239/3/4
f 238/3/4 234/3/4 240/3/4
f 239/3/4 238/3/4 240/3/4
f 241/3/4 242/3/4 243/3/4
f 243/3/4 242/3/4 244/3/4
f 244/3/4 242/3/4 246/3/4
f 245/3/4 246/3/4 247/3/4
f 246/3/4 242/3/4 248/3/4
f 247/3/4 246/3/4 248/3/4
f 249/2/4 250/2/4 251/2/4
f 251/2/4 250/2/4 252/2/4
f 252/2/4 250/2/4 254/2/4
f 253/2/4 254/2/4 255/2/4
f 254/2/4 250/2/4 256/2/4
f 255/2/4 254/2/4 256/2/4
f 261/2/5 258/2/5 257/2/5
f 262/2/5 258/2/5 261/2/5
f 263/2/5 260/2/5 259/2/5
f 264/2/5 260/2/5 263/2/5
f 269/2/5 266/2/5 265/2/5
f 270/2/5 266/2/5 269/2/5
f 271/2/5 268/2/5 267/2/5
f 272/2/5 268/2/5 271/2/5
f 276/2/5 274/2/5 273/2/5
f 277/2/5 274/2/5 276/2/5
f 279/2/5 276/2/5 275/2/5
f 279/2/5 278/2/5 277/2/5
f 279/2/5 277/2/5 276/2/5
f 280/2/5 278/2/5 279/2/5
f 281/2/5 278/2/5 280/2/5
f 282/2/5 278/2/5 281/2/5
f 283/2/5 281/2/5 280/2/5
f 284/2/5 281/2/5 283/2/5
f 287/3/5 286/3/5 285/3/5
f 288/3/5 286/3/5 287/3/5
f 293/3/5 290/3/5 289/3/5
f 294/3/5 290/3/5 293/3/5
f 295/3/5 292/3/5 291/3/5
f 296/3/5 292/3/5 295/3/5
f 299/3/5 298/3/5 297/3/5
f 300/3/5 298/3/5 299/3/5
f 305/3/5 302/3/5 301/3/5
f 306/3/5 302/3/5 305/3/5
f 307/3/5 304/3/5 303/3/5
f 308/3/5 304/3/5 307/3/5
f 309/2/6 310/2/6 311/2/6
f 311/2/6 310/2/6 312/2/6
f 312/2/6 310/2/6 313/2/6
f 313/2/6 310/2/6 314/2/6
f 314/2/6 310/2/6 315/2/6
f 315/2/6 310/2/6 316/2/6
f 309/2/6 311/2/6 317/2/6
f 311/1/6 312/1/6 317/1/6
f 317/1/6 312/1/6 318/1/6
f 313/1/6 314/1/6 319/1/6
f 314/2/6 315/2/6 320/2/6
f 319/1/6 314/1/6 320/1/6
f 320/2/6 315/2/6 321/2/6
f 321/2/6 315/2/6 322/2/6
f 316/2/6 310/2/6 323/2/6
f 323/2/6 310/2/6 324/2/6
f 321/1/6 322/1/6 325/1/6
f 318/2/6 319/2/6 325/2/6
f 323/1/6 324/1/6 325/1/6
f 322/1/6 323/1/6 325/1/6
f 317/2/6 318/2/6 325/2/6
f 320/2/6 321/2/6 325/2/6
f 319/2/6 320/2/6 325/2/6
f 324/2/6 310/2/6 326/2/6
f 325/1/6 324/1/6 326/1/6
f 317/2/6 325/2/6 327/2/6
f 325/2/6 326/2/6 327/2/6
f 327/2/6 326/2/6 328/2/6
f 328/2/6 326/2/6 329/2/6
f 326/2/6 310/2/6 330/2/6
f 329/2/6 326/2/6 330/2/6
f 317/2/6 327/2/6 331/2/6
f 328/2/6 329/2/6 332/2/6
f 332/2/6 329/2/6 333/2/6
f 333/2/6 329/2/6 334/2/6
f 330/2/6 310/2/6 335/2/6
f 317/2/6 331/2/6 336/2/6
f 331/1/6 332/1/6 336/1/6
f 332/1/6 333/1/6 336/1/6
f 334/2/6 335/2/6 337/2/6
f 336/1/6 333/1/6 337/1/6
f 333/2/6 334/2/6 337/2/6
f 336/2/6 337/2/6 338/2/6
f 335/2/6 310/2/6 339/2/6
f 338/2/6 337/2/6 339/2/6
f 337/2/6 335/2/6 339/2/6
f 317/2/6 336/2/6 340/2/6
f 336/2/6 338/2/6 340/2/6
f 338/1/6 339/1/6 341/1/6
f 340/2/6 338/2/6 341/2/6
f 341/1/6 339/1/6 342/1/6
f 342/1/6 339/1/6 343/1/6
f 339/2/6 310/2/6 344/2/6
f 343/1/6 339/1/6 344/1/6
f 317/2/6 340/2/6 345/2/6
f 341/2/6 342/2/6 346/2/6
f 346/2/6 342/2/6 347/2/6
f 343/2/6 344/2/6 348/2/6
f 309/2/6 317/2/6 349/2/6
f 347/2/6 348/2/6 349/2/6
f 346/2/6 347/2/6 349/2/6
f 317/2/6 345/2/6 349/2/6
f 345/2/6 346/2/6 349/2/6
f 349/2/6 348/2/6 350/2/6
f 348/2/6 344/2/6 351/2/6
f 350/2/6 348/2/6 351/2/6
f 344/2/6 310/2/6 352/2/6
f 351/2/6 344/2/6 352/2/6
f 349/1/6 350/1/6 353/1/6
f 309/2/6 349/2/6 353/2/6
f 353/1/6 350/1/6 354/1/6
f 354/1/6 350/1/6 355/1/6
f 350/2/6 351/2/6 356/2/6
f 355/1/6 350/1/6 356/1/6
f 356/2/6 351/2/6 357/2/6
f 357/2/6 351/2/6 358/2/6
f 353/2/6 354/2/6 359/2/6
f 356/2/6 357/2/6 360/2/6
f 355/2/6 356/2/6 360/2/6
f 360/2/6 357/2/6 361/2/6
f 358/2/6 351/2/6 362/2/6
f 360/2/6 361/2/6 363/2/6
f 361/2/6 362/2/6 363/2/6
f 353/2/6 359/2/6 363/2/6
f 359/2/6 360/2/6 363/2/6
f 363/2/6 362/2/6 364/2/6
f 353/2/6 363/2/6 365/2/6
f 363/1/6 364/1/6 365/1/6
f 364/2/6 362/2/6 366/2/6
f 365/1/6 364/1/6 366/1/6
f 309/2/6 353/2/6 367/2/6
f 353/2/6 365/2/6 367/2/6
f 365/2/6 366/2/6 367/2/6
f 367/2/6 366/2/6 368/2/6
f 368/2/6 366/2/6 369/2/6
f 369/2/6 366/2/6 370/2/6
f 366/2/6 362/2/6 371/2/6
f 370/2/6 366/2/6 371/2/6
f 371/2/6 362/2/6 372/2/6
f 362/2/6 351/2/6 373/2/6
f 372/2/6 362/2/6 373/2/6
f 351/1/6 352/1/6 373/1/6
f 352/2/6 310/2/6 374/2/6
f 373/1/6 352/1/6 374/1/6
f 368/2/6 369/2/6 376/2/6
f 376/2/6 369/2/6 377/2/6
f 370/2/6 371/2/6 378/2/6
f 378/2/6 371/2/6 379/2/6
f 372/2/6 373/2/6 380/2/6
f 380/2/6 373/2/6 381/2/6
f 374/2/6 310/2/6 382/2/6
f 380/2/6 381/2/6 383/2/6
f 381/2/6 382/2/6 383/2/6
f 378/2/6 379/2/6 383/2/6
f 376/2/6 377/2/6 383/2/6
f 379/2/6 380/2/6 383/2/6
f 375/2/6 376/2/6 383/2/6
f 377/2/6 378/2/6 383/2/6
f 382/2/6 310/2/6 384/2/6
f 383/2/6 382/2/6 384/2/6
f 385/3/6 386/3/6 387/3/6
f 387/3/6 386/3/6 388/3/6
f 389/3/6 390/3/6 393/3/6
f 393/3/6 390/3/6 394/3/6
f 391/3/6 392/3/6 395/3/6
f 395/3/6 392/3/6 396/3/6
f 397/3/6 398/3/6 399/3/6
f 399/3/6 398/3/6 400/3/6
f 401/3/6 402/3/6 405/3/6
f 405/3/6 402/3/6 406/3/6
f 403/3/6 404/3/6 407/3/6
f 407/3/6 404/3/6 408/3/6
